    <svg viewBox="0 0 400 400" xmlns="http://www.w3.org/2000/svg">
  <defs>
    <linearGradient id="grad1" x1="0%" y1="0%" x2="100%" y2="100%">
      <stop offset="0%" style="stop-color:#8B5CF6;stop-opacity:0.1" />
      <stop offset="100%" style="stop-color:#D946EF;stop-opacity:0.1" />
    </linearGradient>
    <filter id="glow">
      <feGaussianBlur stdDeviation="3" result="coloredBlur"/>
      <feMerge>
        <feMergeNode in="coloredBlur"/>
        <feMergeNode in="SourceGraphic"/>
      </feMerge>
    </filter>
  </defs>
  
  <circle cx="200" cy="200" r="180" fill="url(#grad1)" opacity="0.5"/>
  
  <circle cx="200" cy="200" r="160" fill="none" stroke="#8B5CF6" stroke-width="2" opacity="0.2"/>
  <circle cx="200" cy="200" r="140" fill="none" stroke="#D946EF" stroke-width="2" opacity="0.2"/>
  
  <g transform="translate(140, 160)">
    <rect x="0" y="0" width="20" height="120" rx="4" fill="#8B5CF6" opacity="0.8"/>
    <rect x="40" y="40" width="20" height="80" rx="4" fill="#9333EA" opacity="0.8"/>
    <rect x="80" y="60" width="20" height="60" rx="4" fill="#A855F7" opacity="0.8"/>
    <rect x="120" y="80" width="20" height="40" rx="4" fill="#D946EF" opacity="0.8"/>
  </g>
  
  <g transform="translate(100, 100)">
    <circle cx="0" cy="0" r="15" fill="white" filter="url(#glow)"/>
    <path d="M-8,-5 L0,5 L8,-5" stroke="#8B5CF6" stroke-width="3" fill="none"/>
  </g>
  
  <g transform="translate(300, 150)">
    <circle cx="0" cy="0" r="15" fill="white" filter="url(#glow)"/>
    <circle cx="-5" cy="0" r="4" fill="#D946EF"/>
    <circle cx="5" cy="0" r="4" fill="#D946EF"/>
  </g>
  
  <g transform="translate(250, 300)">
    <circle cx="0" cy="0" r="15" fill="white" filter="url(#glow)"/>
    <path d="M-6,6 L-6,-2 L0,2 L6,-6" stroke="#9333EA" stroke-width="2" fill="none"/>
  </g>
  
  <g stroke="#8B5CF6" stroke-width="1" opacity="0.3">
    <path d="M100,100 L200,200" />
    <path d="M300,150 L200,200" />
    <path d="M250,300 L200,200" />
  </g>
  
  <g fill="#D946EF" opacity="0.5">
    <circle cx="150" cy="80" r="2" />
    <circle cx="280" cy="120" r="2" />
    <circle cx="320" cy="220" r="2" />
    <circle cx="120" cy="320" r="2" />
    <circle cx="220" cy="280" r="2" />
  </g>
</svg> 